<svg xmlns="http://www.w3.org/2000/svg" width="632" height="632" fill="none" viewBox="0 0 632 632">
  <path fill="#E0E0E0" d="M590.149 399.677H382.992V279.799h207.157v119.878Zm-205.893-1.264h204.629v-117.35H384.256v117.35Z"/>
  <path fill="#F0F0F0" d="M547.413 343.719H410.737v4.007h136.676v-4.007Zm9.417 14.941H410.737v4.373H556.83v-4.373Zm0 15.117H410.737v4.374H556.83v-4.374Zm-98.327-51.76h-47.766v10.402h47.766v-10.402Z"/>
  <path fill="#E0E0E0" d="M589.517 280.431H383.662v19.086h205.855v-19.086Z"/>
  <path fill="#fff" d="M573.679 296.661c-.266-.253 2.389-3.451 5.915-7.142 3.527-3.691 6.624-6.484 6.877-6.244.252.24-2.389 3.451-5.916 7.154-3.526 3.704-6.623 6.484-6.876 6.232Z"/>
  <path fill="#fff" d="M586.496 296.661c-.253.253-3.337-2.528-6.876-6.232-3.539-3.703-6.181-6.901-5.916-7.154.266-.253 3.337 2.528 6.877 6.244 3.539 3.716 6.155 6.889 5.915 7.142Z"/>
  <path fill="#E6E6E6" d="M335.238 43.04H129.383v118.625h205.855V43.039Z"/>
  <path fill="#F0F0F0" d="M293.147 106.34H156.47v4.007h136.677v-4.007Zm9.417 14.941H156.47v4.373h146.094v-4.373Zm0 15.117H156.47v4.374h146.094v-4.374Zm-98.327-51.761H156.47V95.04h47.767V84.637Z"/>
  <path fill="#E0E0E0" d="M335.238 43.04H129.383v19.086h205.855V43.038Z"/>
  <path fill="#fff" d="M318.705 59.18c-.266-.24 2.389-3.45 5.915-7.141 3.527-3.691 6.624-6.485 6.877-6.232.252.253-2.389 3.45-5.916 7.142-3.527 3.69-6.623 6.459-6.876 6.231Z"/>
  <path fill="#fff" d="M331.497 59.18c-.253.253-3.337-2.528-6.877-6.231-3.539-3.704-6.181-6.889-5.915-7.142.265-.253 3.337 2.528 6.876 6.232 3.539 3.703 6.181 6.901 5.916 7.141Z"/>
  <path fill="#E0E0E0" d="M257.275 263.405H50.155V143.514h207.12v119.891ZM51.42 262.141h204.59V144.778H51.419v117.363Z"/>
  <path fill="#F0F0F0" d="M214.551 207.448H77.875v4.006h136.676v-4.006Zm9.417 14.94H77.875v4.373h146.093v-4.373Zm0 15.117H77.875v4.374h146.093v-4.374Zm-98.326-51.76H77.875v10.402h47.767v-10.402Z"/>
  <path fill="#E0E0E0" d="M256.643 144.146H50.788v19.087h205.855v-19.087Z"/>
  <path fill="#E6E6E6" d="M496.31 290.872H253.242v217.61H496.31v-217.61Z"/>
  <path fill="#F0F0F0" d="M265.465 222.325H75.056v197.828h190.409V222.325Z"/>
  <path fill="#E0E0E0" d="M265.465 222.325H75.056v21.551h190.409v-21.551Z"/>
  <path fill="#fff" d="M90.78 232.879a3.994 3.994 0 1 1-3.994-4.171 4.096 4.096 0 0 1 3.995 4.171Zm16.218 0a4.014 4.014 0 0 1-2.587 3.584 4.011 4.011 0 0 1-4.311-.977 4.003 4.003 0 0 1-.789-4.349 4.007 4.007 0 0 1 3.692-2.429 4.096 4.096 0 0 1 3.995 4.171Zm16.217 0a4.006 4.006 0 0 1-6.898 2.607 4.003 4.003 0 0 1-.789-4.349 4.004 4.004 0 0 1 3.692-2.429 4.096 4.096 0 0 1 3.995 4.171Z"/>
  <path fill="#F0F0F0" d="M562.96 86.306H319.893v242.258H562.96V86.306Z"/>
  <path fill="#E0E0E0" d="M562.96 86.306H319.893v28.377H562.96V86.306Z"/>
  <path fill="#fff" d="M340.597 100.21a5.274 5.274 0 0 1-9.071 3.42 5.28 5.28 0 0 1-1.38-2.7 5.274 5.274 0 0 1 5.181-6.219 5.396 5.396 0 0 1 5.27 5.499Zm19.807-3.716a5.274 5.274 0 0 1 .925 5.743 5.26 5.26 0 0 1-1.997 2.289 5.28 5.28 0 0 1-5.816-.135 5.273 5.273 0 0 1-.696-8.074 5.374 5.374 0 0 1 7.584.177Zm22.891 3.716a5.268 5.268 0 0 1-3.406 4.704 5.267 5.267 0 0 1-5.665-1.284 5.274 5.274 0 0 1 .897-8.044 5.27 5.27 0 0 1 2.903-.875 5.398 5.398 0 0 1 5.271 5.499Z"/>
  <path fill="#263238" d="M510.454 572.756c0 .177-87.772.329-196.009.329-108.236 0-196.046-.152-196.046-.329 0-.177 87.759-.328 196.046-.328 108.287 0 196.009.164 196.009.328Z"/>
  <path fill="#4942E4" d="M424.932 418.017c-19.529-13.638-23.953-38.956-23.182-61.721.126-3.792-.291-7.811 1.517-11.135 1.807-3.325 6.029-5.613 9.429-4.02 2.819 1.327 4.045 4.614 5.625 7.331a22.197 22.197 0 0 0 8.911 8.507c2.414 1.264 5.41 2.022 7.799.708 3.286-1.808 3.666-6.32 3.64-10.112 0-7.053-.042-14.098-.126-21.134a35.173 35.173 0 0 1 1.138-11.225c1.175-3.589 3.792-6.914 7.369-7.925 3.577-1.011 8.039 1.074 8.848 4.765.139 1.564.177 3.134.113 4.702.102 1.58.835 3.312 2.314 3.792 1.478.481 3.021-.619 4.158-1.731 3.893-3.792 6.548-8.734 9.012-13.614 2.465-4.879 4.879-9.897 8.419-14.055 3.539-4.159 8.431-7.458 13.904-7.774 5.473-.316 11.173 3.046 12.539 8.355 1.365 5.309-1.732 10.732-5.056 15.042a84.54 84.54 0 0 1-17.557 16.748 6.877 6.877 0 0 0-2.946 3.147c-.821 2.528 1.568 5.056 4.058 5.853 2.819.935 5.877.644 8.848.998 2.97.354 6.13 1.643 7.255 4.424 1.542 3.868-1.693 7.913-4.866 10.567a72.525 72.525 0 0 1-21.387 12.349c-2.781 1.012-5.701 1.909-7.951 3.856-2.25 1.946-3.589 5.346-2.237 8.013 1.353 2.667 4.829 3.514 7.748 2.971 2.92-.544 5.511-2.111 8.292-3.16 5.195-1.959 11.895-1.605 15.168 2.882A11.95 11.95 0 0 1 496.992 386a27.585 27.585 0 0 1-5.726 9.341 72.834 72.834 0 0 1-31.17 21.779c-12.046 4.171-23.207 5.309-35.177.923"/>
  <path fill="#263238" d="M500.797 286.498s-.114.127-.366.354l-1.125.999c-.986.885-2.44 2.174-4.273 3.88a141.258 141.258 0 0 0-14.435 15.585c-2.818 3.502-5.738 7.471-8.848 11.781a321.547 321.547 0 0 0-9.505 13.904 171.472 171.472 0 0 0-9.316 16.154c-1.466 2.894-2.755 5.915-4.082 8.999l-3.919 9.417a347.447 347.447 0 0 0-13.474 36.366 169.383 169.383 0 0 0-6.32 31.005 123.366 123.366 0 0 0-.354 21.349c.202 2.528.392 4.462.569 5.777.076.632.126 1.137.177 1.504v.518a2.638 2.638 0 0 1-.114-.505c-.063-.367-.139-.86-.24-1.492-.227-1.264-.468-3.261-.695-5.789-.61-7.126-.568-14.293.126-21.412a166.606 166.606 0 0 1 6.181-31.145 339.223 339.223 0 0 1 13.437-36.454l4.019-9.379c1.327-3.071 2.629-6.117 4.108-9.025a169.184 169.184 0 0 1 9.392-16.192c3.235-5.056 6.497-9.631 9.568-13.904 3.072-4.272 6.042-8.266 8.848-11.755a134.364 134.364 0 0 1 14.625-15.471 161.88 161.88 0 0 1 4.373-3.792l1.175-.948c.145-.126.301-.236.468-.329Z"/>
  <path fill="#263238" d="M452.512 348.864a7.827 7.827 0 0 1-.366-1.605c-.203-1.049-.43-2.528-.696-4.45-.543-3.792-1.099-8.987-1.693-14.738-.594-5.751-1.264-10.959-1.82-14.713a333.324 333.324 0 0 0-.721-4.424 6.851 6.851 0 0 1-.215-1.643c.218.506.375 1.037.468 1.58.278 1.036.594 2.528.948 4.411.72 3.792 1.428 8.949 2.022 14.713.594 5.764 1.1 10.82 1.492 14.751.189 1.77.354 3.274.48 4.475.098.542.132 1.093.101 1.643Zm48.639-9.076c-.615.134-1.241.211-1.871.228-1.264.114-3.059.265-5.283.518-4.45.481-10.567 1.365-17.279 2.629s-12.741 2.693-17.077 3.792a144.358 144.358 0 0 0-5.056 1.403 9.145 9.145 0 0 1-1.896.455 11.095 11.095 0 0 1 1.82-.72 91.978 91.978 0 0 1 5.056-1.618c4.311-1.264 10.34-2.768 17.077-4.057a171.97 171.97 0 0 1 17.254-2.402 83.644 83.644 0 0 1 5.308-.291 9.748 9.748 0 0 1 1.947.063Zm-69.748 63.074a2.627 2.627 0 0 1-.328-.594l-.834-1.757c-.721-1.529-1.694-3.792-2.857-6.56-2.351-5.562-5.347-13.348-8.532-21.994-3.185-8.645-6.118-16.432-8.342-22.056a2477.672 2477.672 0 0 0-2.655-6.636l-.708-1.808a2.44 2.44 0 0 1-.202-.657c.135.183.245.382.329.594l.834 1.757c.708 1.529 1.694 3.792 2.857 6.56 2.351 5.562 5.346 13.348 8.532 21.994 3.185 8.645 6.117 16.432 8.342 22.056 1.087 2.731 1.984 4.968 2.642 6.636.29.721.531 1.264.72 1.808.098.208.166.43.202.657Z"/>
  <path fill="#263238" d="M495.968 382.044a2.682 2.682 0 0 1-.644.265l-1.871.632-6.914 2.238c-5.84 1.896-13.904 4.601-22.752 7.584-8.848 2.983-16.95 5.637-22.828 7.407-2.932.897-5.321 1.58-6.977 2.035l-1.909.493c-.222.07-.451.117-.682.139.202-.116.419-.206.644-.266l1.871-.632 6.914-2.237c5.84-1.896 13.904-4.601 22.752-7.584 8.848-2.983 16.938-5.637 22.815-7.407 2.945-.897 5.322-1.58 6.99-2.035l1.909-.493c.222-.071.451-.117.682-.139Z"/>
  <path fill="#4942E4" d="m469.626 75.436-6.509 2.325-2.794-8.506c-5.131-15.687-21.488-24.016-36.517-18.72-15.029 5.296-23.03 22.499-17.898 38.185l2.794 8.507-6.535 2.338a10.387 10.387 0 0 0-6.093 12.994l18.113 55.351a9.777 9.777 0 0 0 8.604 6.936 9.772 9.772 0 0 0 3.859-.477l67.46-24.13a10.44 10.44 0 0 0 6.156-13.12l-18.126-55.35a9.747 9.747 0 0 0-12.514-6.333Zm-51.419 8.847a16.673 16.673 0 0 1 9.809-20.919 15.622 15.622 0 0 1 20.009 10.251l2.78 8.507-29.817 10.668-2.781-8.507Zm37.92 49.12 4.626 14.131a1.15 1.15 0 0 1-.72 1.416l-6.485 2.313a1.04 1.04 0 0 1-1.264-.683l-4.664-14.068a12.639 12.639 0 0 1-11.376-8.848 13.283 13.283 0 0 1 7.824-16.66 12.467 12.467 0 0 1 9.702.701 12.445 12.445 0 0 1 6.237 7.465 13.494 13.494 0 0 1-3.867 14.27l-.013-.037Z"/>
  <path fill="#263238" d="M462.826 77.61c0 .176-12.071 4.714-27.087 10.112-15.017 5.397-27.265 9.732-27.328 9.606-.063-.127 12.071-4.702 27.1-10.112 15.029-5.41 27.252-9.77 27.315-9.606Zm14.334 2.325c.056.11.102.224.139.342.101.252.215.581.366.986l1.353 3.791 4.854 14.132c2.022 5.991 4.436 13.095 7.116 20.982 1.264 3.957 2.755 8.077 4.146 12.413a18.955 18.955 0 0 1 .948 6.939 9.315 9.315 0 0 1-1.024 3.502 9.659 9.659 0 0 1-2.389 2.818 22.734 22.734 0 0 1-6.421 3.274l-6.51 2.338-12.324 4.412-20.868 7.432-14.094 4.955-3.792 1.264-1.011.329a1.066 1.066 0 0 1-.341.088s.101 0 .316-.152l.986-.391 3.792-1.429 14.017-5.157 20.831-7.584 12.299-4.449 6.509-2.351a21.66 21.66 0 0 0 6.232-3.173 8.993 8.993 0 0 0 2.225-2.616 8.34 8.34 0 0 0 .948-3.249 18.189 18.189 0 0 0-.911-6.686c-1.365-4.298-2.806-8.456-4.108-12.413-2.629-7.9-5.056-15.029-6.977-21.02-1.921-5.992-3.539-10.807-4.651-14.195-.531-1.656-.936-2.945-1.264-3.88l-.304-1.011a1.145 1.145 0 0 1-.088-.24Z"/>
  <path fill="#263238" d="M441.566 62.505s-.67-.329-1.909-.834a16.837 16.837 0 0 0-5.524-1.113 18.958 18.958 0 0 0-8.165 1.542 18.2 18.2 0 0 0-7.723 6.46 17.088 17.088 0 0 0-2.971 9.593 29.592 29.592 0 0 0 1.264 8.28c.658 2.3 1.34 4.133 1.795 5.41.269.648.488 1.315.658 1.996a11.04 11.04 0 0 1-.898-1.908c-.518-1.264-1.264-3.06-1.997-5.372a28.748 28.748 0 0 1-1.454-8.406 17.337 17.337 0 0 1 3.034-9.96 18.496 18.496 0 0 1 8.026-6.649 18.812 18.812 0 0 1 8.406-1.44c1.932.098 3.829.547 5.599 1.326.474.219.93.472 1.366.759a1.9 1.9 0 0 1 .493.316Zm.581 49.46c.202-.122.413-.228.632-.316a12.601 12.601 0 0 1 1.959-.695 14.051 14.051 0 0 1 3.274-.556 11.103 11.103 0 0 1 4.437.67c3.236 1.137 6.206 4.436 7.672 8.848a12.742 12.742 0 0 1 0 7.255 16.43 16.43 0 0 1-4.07 6.813l.076-.341c1.681 4.613 3.514 9.619 5.41 14.839l.114.316-.316.114-2.895.961-6.32 2.11-.316.102-.101-.316c-1.732-5.233-3.628-10.112-5.056-14.903l.278.215a12.64 12.64 0 0 1-6.775-2.667 15.306 15.306 0 0 1-4.234-5.056 11.543 11.543 0 0 1-1.34-5.688 13.73 13.73 0 0 1 5.296-10.441 8.055 8.055 0 0 1 2.187-1.264c-.714.424-1.406.884-2.073 1.378a13.435 13.435 0 0 0-3.906 5.549 11.945 11.945 0 0 0 .392 10.2 14.832 14.832 0 0 0 4.133 4.854 12.025 12.025 0 0 0 6.459 2.528h.215l.063.19c1.39 4.702 3.299 9.619 5.056 14.877l-.417-.202 6.32-2.111 2.882-.973-.202.429c-1.884-5.22-3.704-10.238-5.372-14.852v-.189l.151-.152a16.103 16.103 0 0 0 3.995-6.535c.67-2.264.67-4.675 0-6.939-1.378-4.247-4.222-7.47-7.306-8.608a10.869 10.869 0 0 0-4.285-.72 14.48 14.48 0 0 0-3.236.442c-1.884.468-2.768.897-2.781.834Z"/>
  <path fill="#455A64" d="m403.077 476.933-126.261-.582a27.516 27.516 0 0 1-27.366-27.631l1.34-316.518a27.49 27.49 0 0 1 27.631-27.378l126.249.581a27.518 27.518 0 0 1 27.378 27.618l-1.34 316.506a27.513 27.513 0 0 1-17.092 25.353 27.515 27.515 0 0 1-10.539 2.051Z"/>
  <path fill="#fff" d="M404.48 116.288h-24.471a6.09 6.09 0 0 0-4.266 1.861 6.087 6.087 0 0 0-1.7 4.333v4.436a6.068 6.068 0 0 1-5.966 6.181l-47.703-.215a6.09 6.09 0 0 1-5.929-6.244v-4.436a6.092 6.092 0 0 0-5.915-6.245h-8.608l-21.425-.101a19.265 19.265 0 0 0-19.377 19.074l-1.264 308.947a19.26 19.26 0 0 0 5.576 13.638 19.243 19.243 0 0 0 13.586 5.701l125.996.581a19.257 19.257 0 0 0 13.647-5.579 19.279 19.279 0 0 0 4.205-6.23 19.29 19.29 0 0 0 1.5-7.365l1.264-308.947a19.277 19.277 0 0 0-19.15-19.39Z"/>
  <path fill="#4942E4" d="m387.53 422.581-93.688-.405c-.973 0-1.757-1.062-1.744-2.351l.101-24.509c0-1.264.796-2.351 1.77-2.351l93.687.43a2.122 2.122 0 0 1 1.745 2.364l-.089 24.483c0 1.302-.809 2.351-1.782 2.339Z"/>
  <path fill="#E8E8E3" d="M324.267 404.641a1.15 1.15 0 0 0-.533-.862c-.311-.204-.693-.306-1.146-.306-.331 0-.62.053-.869.16a1.389 1.389 0 0 0-.576.442c-.137.187-.205.4-.205.639a.91.91 0 0 0 .143.514c.097.141.221.259.372.354.151.093.309.169.474.23.166.059.318.106.457.143l.759.204c.194.051.411.122.649.212.241.09.471.213.69.368.222.154.404.351.548.592.143.24.215.536.215.887 0 .403-.106.768-.317 1.094-.21.327-.516.586-.92.778-.402.192-.89.288-1.464.288-.535 0-.999-.086-1.39-.259a2.216 2.216 0 0 1-.92-.723 2.055 2.055 0 0 1-.376-1.076h.934c.025.282.119.516.285.7.168.183.38.319.635.409.258.088.535.132.832.132.346 0 .656-.056.931-.168.275-.115.493-.273.653-.475.161-.204.241-.443.241-.715 0-.248-.069-.45-.208-.606a1.536 1.536 0 0 0-.547-.38 5.839 5.839 0 0 0-.734-.255l-.92-.263c-.584-.168-1.046-.407-1.387-.719-.34-.311-.511-.719-.511-1.223 0-.418.113-.783.34-1.094.228-.314.535-.558.919-.73a3.095 3.095 0 0 1 1.296-.263c.482 0 .91.086 1.285.259.375.17.671.404.89.701.222.297.339.634.351 1.011h-.876Zm3.371-1.869v7.475h-.905v-7.475h.905Zm7.743 0v7.475h-.876l-4.074-5.869h-.073v5.869h-.905v-7.475h.876l4.088 5.883h.073v-5.883h.891Zm6.921 2.336a2.646 2.646 0 0 0-.318-.661 2.025 2.025 0 0 0-.463-.503 1.948 1.948 0 0 0-.606-.318 2.42 2.42 0 0 0-.745-.109c-.443 0-.845.114-1.208.343-.362.228-.651.565-.865 1.011-.214.445-.321.991-.321 1.638 0 .648.108 1.194.325 1.639.216.445.509.782.879 1.011.37.229.786.343 1.249.343.428 0 .805-.091 1.131-.273.328-.185.584-.446.766-.782.185-.338.278-.736.278-1.193l.277.058h-2.248v-.803h2.847v.803c0 .616-.132 1.151-.394 1.606a2.732 2.732 0 0 1-1.081 1.059c-.457.248-.983.372-1.576.372-.662 0-1.244-.156-1.745-.467-.499-.312-.888-.754-1.168-1.329-.277-.574-.416-1.255-.416-2.044 0-.591.079-1.123.237-1.595.161-.474.387-.878.679-1.211a2.969 2.969 0 0 1 1.037-.767 3.212 3.212 0 0 1 1.317-.266c.394 0 .762.059 1.102.179.343.116.649.283.917.5.27.214.495.47.675.77.18.297.304.626.372.989h-.934Zm10.324-2.336h.905v4.949c0 .511-.12.967-.361 1.369a2.523 2.523 0 0 1-1.011.945c-.436.229-.947.343-1.533.343s-1.097-.114-1.533-.343a2.56 2.56 0 0 1-1.015-.945 2.635 2.635 0 0 1-.357-1.369v-4.949h.905v4.876c0 .365.08.69.241.975.16.282.389.505.686.668.299.16.657.24 1.073.24.416 0 .774-.08 1.073-.24.299-.163.528-.386.686-.668.161-.285.241-.61.241-.975v-4.876Zm2.713 7.475v-7.475h2.526c.586 0 1.065.106 1.438.317.374.21.652.493.832.851.18.358.27.757.27 1.197 0 .44-.09.841-.27 1.201a2.01 2.01 0 0 1-.825.861c-.372.212-.849.318-1.431.318h-1.81v-.803h1.781c.401 0 .724-.07.967-.208.244-.139.42-.326.529-.562a1.88 1.88 0 0 0 .168-.807c0-.299-.056-.567-.168-.803a1.199 1.199 0 0 0-.532-.555c-.246-.136-.572-.204-.979-.204h-1.591v6.672h-.905Z"/>
  <path fill="#4942E4" d="m312.529 207.107-32.509-.148-.028 5.966 32.51.148.027-5.966Z"/>
  <path fill="#E0E0E0" d="M407.83 243.737a2.89 2.89 0 0 0 .745-.177 1.994 1.994 0 0 0 1.264-1.706v-16.786a2.452 2.452 0 0 0-.353-1.656 1.89 1.89 0 0 0-1.505-.771h-20.236l-105.721-.392a1.686 1.686 0 0 0-1.391.695 2.413 2.413 0 0 0-.328 1.656v15.168a9.872 9.872 0 0 0 0 1.77 1.7 1.7 0 0 0 .986 1.137c.249.1.515.147.783.139h6.434l28.074.152 47.526.291 32.042.253 8.709.101h3.034-43.785l-47.526-.152-28.074-.114h-6.434a2.514 2.514 0 0 1-1.036-.177 2.366 2.366 0 0 1-1.365-1.58 3.575 3.575 0 0 1-.076-1.011v-16.103a7.107 7.107 0 0 1 0-1.011c.047-.372.191-.725.417-1.024a2.328 2.328 0 0 1 1.921-.973l105.721.581 18.265.126h1.972a2.17 2.17 0 0 1 1.77.923c.356.55.5 1.21.404 1.858v8.077c0 3.792-.088 6.699-.114 8.722a2.05 2.05 0 0 1-1.327 1.757 1.513 1.513 0 0 1-.796.227Z"/>
  <path fill="#4942E4" d="M349.243 228.594h-59.458v5.575h59.458v-5.575Zm-36.935 32.939-32.51-.148-.027 5.967 32.51.147.027-5.966Z"/>
  <path fill="#E0E0E0" d="M407.008 298.165c.255-.031.509-.078.758-.139a2.585 2.585 0 0 0 1.593-1.441c.199-.51.277-1.06.228-1.605V279.9a2.72 2.72 0 0 0-.367-1.668 2.454 2.454 0 0 0-1.378-1.075 7.768 7.768 0 0 0-1.908-.101h-18.189l-105.355-.392a2.346 2.346 0 0 0-1.539.583c-.425.375-.7.891-.774 1.453v15.168a7.228 7.228 0 0 0 .076 1.769 2.4 2.4 0 0 0 .923 1.264 2.633 2.633 0 0 0 1.567.405h5.41l27.972.139 47.362.29 31.929.253 8.684.101h3.021-43.634l-47.387-.05-27.972-.101h-5.499a3.178 3.178 0 0 1-1.934-.519 3.031 3.031 0 0 1-1.188-1.655 7.99 7.99 0 0 1-.101-1.947v-15.168a2.995 2.995 0 0 1 2.97-2.617l105.355.582 18.189.139a7.795 7.795 0 0 1 2.022.139 2.795 2.795 0 0 1 1.555 1.264 3.04 3.04 0 0 1 .404 1.845v15.143a3.532 3.532 0 0 1-.265 1.656 2.675 2.675 0 0 1-1.706 1.441 2.372 2.372 0 0 1-.822-.076Z"/>
  <path fill="#4942E4" d="m312.062 318.323-32.509-.148-.027 5.966 32.509.148.027-5.966Z"/>
  <path fill="#E0E0E0" d="M406.755 354.931c.256-.03.509-.076.759-.139a2.607 2.607 0 0 0 1.592-1.428 3.56 3.56 0 0 0 .228-1.605v-15.093a2.714 2.714 0 0 0-.367-1.668 2.527 2.527 0 0 0-1.377-1.062 7.733 7.733 0 0 0-1.909-.114h-18.189l-105.354-.391a2.34 2.34 0 0 0-2.314 2.035v15.168a7.182 7.182 0 0 0 .076 1.757c.152.515.478.962.923 1.264a2.525 2.525 0 0 0 1.567.404h5.499l27.972.152 47.362.29 31.929.253 8.683.101h3.021-43.633l-47.362-.139-27.972-.113h-5.499a3.1 3.1 0 0 1-1.934-.519 3.036 3.036 0 0 1-1.188-1.655 7.99 7.99 0 0 1-.101-1.947v-15.231a2.985 2.985 0 0 1 2.958-2.617l105.354.582 18.189.139a7.803 7.803 0 0 1 2.023.139c.656.214 1.21.665 1.554 1.264.327.557.469 1.203.405 1.845v15.143a3.469 3.469 0 0 1-.266 1.656 2.684 2.684 0 0 1-1.706 1.441 2.006 2.006 0 0 1-.923.088Z"/>
  <path fill="#4942E4" d="m347.974 284.598-59.458-.27-.025 5.575 59.458.269.025-5.574Zm-54.081 60.019a2.604 2.604 0 1 1-2.528-2.793 2.676 2.676 0 0 1 2.528 2.793Zm8.051.038a2.61 2.61 0 0 1-.693 1.957 2.595 2.595 0 0 1-2.942.612 2.614 2.614 0 0 1-1.417-1.518 2.61 2.61 0 0 1-.143-1.051 2.61 2.61 0 0 1 .694-1.957 2.59 2.59 0 0 1 1.904-.828 2.595 2.595 0 0 1 1.904.828 2.596 2.596 0 0 1 .693 1.957Zm8.065.038a2.606 2.606 0 0 1-3.247 2.331 2.606 2.606 0 0 1-1.716-3.609 2.602 2.602 0 0 1 2.435-1.516 2.697 2.697 0 0 1 2.528 2.794Zm8.051.038a2.6 2.6 0 0 1-1.75 2.272 2.611 2.611 0 0 1-2.777-.715 2.605 2.605 0 0 1 1.999-4.351 2.695 2.695 0 0 1 2.528 2.794Zm8.052.025a2.614 2.614 0 0 1-.528 1.403c-.31.405-.732.711-1.214.879a2.61 2.61 0 0 1-3.429-2.06 2.603 2.603 0 0 1 2.643-3.003 2.691 2.691 0 0 1 2.528 2.781Zm8.064.038a2.6 2.6 0 0 1-3.216 2.352 2.601 2.601 0 0 1-1.768-3.571 2.601 2.601 0 0 1 2.393-1.562 2.696 2.696 0 0 1 2.591 2.781Zm8.052.038a2.61 2.61 0 0 1-.693 1.957 2.596 2.596 0 0 1-1.905.828 2.595 2.595 0 0 1-1.904-.828 2.611 2.611 0 0 1-.693-1.957 2.61 2.61 0 0 1 .693-1.957 2.61 2.61 0 0 1 1.904-.828 2.597 2.597 0 0 1 1.905.828 2.611 2.611 0 0 1 .693 1.957Zm8.052.038a2.607 2.607 0 0 1-3.217 2.352 2.601 2.601 0 0 1-1.767-3.571 2.602 2.602 0 0 1 2.393-1.562 2.692 2.692 0 0 1 2.591 2.781Zm8.051.038a2.605 2.605 0 0 1-5.17.221 2.601 2.601 0 0 1 2.642-3.002 2.692 2.692 0 0 1 2.528 2.781Zm-11.439-182.471a4.892 4.892 0 0 0 2.92-4.538 4.593 4.593 0 0 0-1.257-3.408 4.601 4.601 0 0 0-7.932 3.408 4.903 4.903 0 0 0 2.932 4.588c-7.078 1.062-6.762 8.747-6.762 8.747l16.735.076s.392-7.824-6.636-8.873Zm27.194 13.83-59.647-.271-.032 7.129 59.647.271.032-7.129Zm-219.284 36.945h-.594l-1.719.126a19.55 19.55 0 0 0-2.768.366 17.19 17.19 0 0 0-1.757.342l-1.959.543a32.203 32.203 0 0 0-9.316 4.614 32.788 32.788 0 0 0-9.177 10.213 34.247 34.247 0 0 0-3.21 7.344 35.269 35.269 0 0 0-1.403 8.57 34.58 34.58 0 0 0 .076 4.575c0 .771.215 1.543.316 2.326a15 15 0 0 0 .442 2.339 33.363 33.363 0 0 0 18.96 23.169 30.029 30.029 0 0 0 10.858 2.439 29.299 29.299 0 0 0 11.376-1.63l1.112-.417h.152l.126.075 15.939 8.09-.467.404c-1.707-5.283-3.35-10.402-4.943-15.319v-.19l.139-.139a34.124 34.124 0 0 0 8.368-13.904 35.012 35.012 0 0 0 1.264-14.814 34.601 34.601 0 0 0-4.184-12.564 34.104 34.104 0 0 0-7.205-8.848 35.154 35.154 0 0 0-7.824-4.98 34.08 34.08 0 0 0-6.623-2.086l-2.528-.417-1.833-.139-1.112-.076h-.379c.126-.014.253-.014.379 0h1.125l1.833.076 2.528.367a33.493 33.493 0 0 1 6.711 2.009 35.123 35.123 0 0 1 7.964 4.968 34.206 34.206 0 0 1 7.356 8.848 34.674 34.674 0 0 1 4.31 12.728 35.385 35.385 0 0 1-1.175 15.067 34.592 34.592 0 0 1-8.494 14.195l.076-.329c1.592 4.917 3.248 10.036 4.967 15.307l.24.771-.72-.366-15.939-8.077h.278l-1.138.417a30.149 30.149 0 0 1-11.591 1.668 30.69 30.69 0 0 1-11.085-2.528 33.254 33.254 0 0 1-15.838-14.169 33.758 33.758 0 0 1-3.577-9.354 19.35 19.35 0 0 1-.442-2.389c-.102-.796-.266-1.58-.304-2.363a37.348 37.348 0 0 1 1.403-13.348 34.006 34.006 0 0 1 3.299-7.432 33.075 33.075 0 0 1 9.367-10.277 31.957 31.957 0 0 1 9.467-4.575l1.984-.506a17.677 17.677 0 0 1 1.77-.316 18.712 18.712 0 0 1 2.793-.303l1.732-.064a4.22 4.22 0 0 1 .594-.037Z"/>
  <path fill="#4942E4" d="M162.007 242.688h-2.338l-5.056-7.104v-4.664s-3.615-.227-3.186 5.878c.43 6.105 0 4.55 0 4.55s-7.672 0-8.304.695c-.632.696-.67 8.103-.759 12.236a4.48 4.48 0 0 0 3.173 4.5c.268.074.544.112.822.114 1.921 0 11.692-1.555 11.692-1.555h4.032l-.076-14.65Zm6.687-1.251-1.441 15.977h-3.995v-15.649l5.436-.328Zm47.64 325.265v-10.808l-19.377-.139-.165 16.344 1.201.088c5.347.342 27.201.847 30.791-.265 3.994-1.239-12.45-5.22-12.45-5.22Z"/>
  <path fill="#263238" d="M229.239 570.911c0 .177-7.255.329-16.192.329-8.936 0-16.192-.152-16.192-.329 0-.177 7.256-.329 16.192-.329 8.937 0 16.192.152 16.192.329Zm-12.564-1.997c-.164-.089 0-.657.392-1.264s.922-.86 1.049-.733c.126.126-.139.606-.518 1.125-.38.518-.759.96-.923.872Zm1.239.708c-.177 0-.089-.708.29-1.378.38-.67.885-1.075 1.024-.973.139.101-.088.669-.442 1.264-.354.594-.708 1.15-.872 1.087Z"/>
  <path fill="#263238" d="M202.695 570.86c-.076 0-.367-.227-.784-.708a12.54 12.54 0 0 0-1.693-1.693 4.472 4.472 0 0 0-2.099-.923c-.594-.076-.973 0-1.011-.076-.038-.076.329-.341 1.024-.392a3.908 3.908 0 0 1 2.528.86 7.113 7.113 0 0 1 1.668 1.959c.291.556.443.923.367.973Zm14.043-3.981c.089.151-.24.531-.796.733-.556.202-1.049.126-1.075 0-.025-.126.367-.392.847-.569.481-.177.923-.316 1.024-.164Zm-.303-1.05c0 .19-.506.342-1.163.354-.657.013-1.176-.139-1.163-.316.013-.177.531-.341 1.163-.354.632-.012 1.138.139 1.163.316Z"/>
  <path fill="#4942E4" d="M264.05 566.702v-10.808l-19.377-.139-.165 16.18 1.201.088c5.347.341 27.214 1.011 30.791-.101 3.994-1.239-12.45-5.22-12.45-5.22Z"/>
  <path fill="#263238" d="M276.955 570.936c0 .177-7.243.329-16.192.329s-16.179-.152-16.179-.329c0-.177 7.243-.329 16.179-.329 8.937 0 16.192.152 16.192.329Zm-12.564-2.022c-.152-.089 0-.657.392-1.264s.923-.86 1.049-.733c.127.126-.139.606-.518 1.125-.379.518-.759.96-.923.872Zm1.239.708c-.164 0-.089-.708.303-1.378.392-.67.885-1.075 1.024-.973.139.101-.101.669-.455 1.264-.354.594-.695 1.15-.872 1.087Z"/>
  <path fill="#263238" d="M250.411 570.86c-.076 0-.354-.227-.784-.708a12.54 12.54 0 0 0-1.693-1.693 4.468 4.468 0 0 0-2.099-.923c-.581-.076-.973 0-1.011-.076-.038-.076.329-.341 1.024-.392a3.904 3.904 0 0 1 2.528.86 6.916 6.916 0 0 1 1.669 1.959c.29.556.442.923.366.973Zm14.043-3.981c.089.151-.24.531-.796.733-.556.202-1.049.126-1.075 0-.025-.126.367-.392.847-.569.481-.177.923-.316 1.024-.164Zm-.278-1.05c0 .19-.505.342-1.163.354-.657.013-1.163-.139-1.15-.316.013-.177.518-.341 1.15-.354.632-.012 1.163.139 1.163.316Z"/>
  <path fill="#FFBE9D" d="M335.44 245.772c-.505-.518-1.757-.265-1.757-.265a6.45 6.45 0 0 0 0-2.2c-.227-.708-1.82-.568-1.82-.568a7.384 7.384 0 0 1 0-1.795.643.643 0 0 0-.366-.645 5.845 5.845 0 0 0-2.377-.43c-.973-.695 2.971-6.219 4.437-7.988 1.466-1.77 1.201-3.148-.101-3.148-.897 0-5.498 5.309-6.914 7.091-1.416 1.783-5.17 6.738-5.296 2.781-.127-3.956-1.719-6.939-2.718-7.445-.998-.505-2.06.683-1.517 1.783a14.11 14.11 0 0 1 .885 3.893 9.317 9.317 0 0 1-.139 3.185 38.277 38.277 0 0 1-1.706 5.713h-.101s-27.581 26.456-29.578 28.339c-1.782 1.694-37.629-2.01-44.821-2.768a48.111 48.111 0 0 0-7.382-.506c-3.122.139-3.678.582-6.788.62-7.853.087-15.687.776-23.434 2.06a19.43 19.43 0 0 0-15.244 13.221c-7.243 22.626-23.65 76.182-26.544 106.265a127.464 127.464 0 0 0-5.916 12.223c-2.035 5.536-1.542 5.726-.859 5.852 1.845.341 3.943-9.594 4.727-7.192.784 2.402-3.982 11.844-2.048 12.122 2.528.354 4.538-10.112 4.778-10.947.24-.834 1.492-.568 1.264.215-.366 1.113-3.918 12.906-1.441 13.285 1.365.202 1.517-2.288 1.517-2.288s2.528-11.287 3.678-11.06c1.151.228-.076 6.889-.657 9.114-.581 2.224.228 3.349 1.416 2.806.809-.38 2.743-7.142 3.273-9.341.531-2.2 1.859-8.292 3.641-4.766 1.782 3.527 4.487 5.575 5.599 5.625a1.269 1.269 0 0 0 1.075-.922 1.262 1.262 0 0 0-.455-1.34 14.343 14.343 0 0 1-2.44-3.16 9.313 9.313 0 0 1-1.264-2.958 32.1 32.1 0 0 1-.885-6.396l-.202-1.264c2.831-14.018 10.984-55.161 22.752-81.439l4.829 9.935 2.098 7.356-12.868 31.764 54.883-.72-8.191-31.524 9.948-32.864c10.757.24 38.375.644 42.976-1.441 5.789-2.528 35.733-40.347 35.733-40.347a69.108 69.108 0 0 0 5.6-4.854s1.82-1.529.72-2.667Z"/>
  <path fill="#4942E4" d="M191.357 336.717c1.593-5.435 9.771-32.308 9.771-32.308s4.019 21.905 2.958 24.547a46.812 46.812 0 0 1-3.451 6.522c-9.278 14.119-8.064 21.185-8.064 21.185l56.058-1.706c.126-7.837-4.513-26.064-5.473-28.971-.961-2.908 2.237-12.425 2.237-12.425s6.32-6.434 6.093-9.746a53.544 53.544 0 0 0-1.1-8.848l34.128 1.264-1.074-23.131-49.018-4.904c-1.707 4.815-17.14 2.452-17.14 2.452-16.66.556-17.696 3.615-24.623 8.999-6.927 5.385-18.391 51.597-18.391 51.597l17.089 5.473Z"/>
  <path fill="#263238" d="M224.499 331.244c-.971.173-1.961.224-2.945.151-1.833 0-4.348-.126-7.116-.404s-5.271-.67-7.053-1.024a12.201 12.201 0 0 1-2.87-.733c.989 0 1.975.093 2.946.278 1.794.227 4.284.543 7.04.822a233.2 233.2 0 0 0 7.066.594 15.53 15.53 0 0 1 2.932.316Zm3.843-4.765c-.972.476-2 .828-3.059 1.049a56.172 56.172 0 0 1-15.459 1.832 12.688 12.688 0 0 1-3.21-.303 21.654 21.654 0 0 1 3.21-.164 91.288 91.288 0 0 0 7.723-.556 83.974 83.974 0 0 0 7.584-1.264 20.838 20.838 0 0 1 3.211-.594Zm18.858-21.261a13.115 13.115 0 0 1-.391 2.857 130.44 130.44 0 0 1-1.479 6.787c-.645 2.629-1.264 5.056-1.82 6.7a12.69 12.69 0 0 1-.986 2.717c.07-.961.248-1.91.531-2.831.48-1.972 1.023-4.247 1.63-6.737s1.188-4.766 1.669-6.737c.171-.95.455-1.875.846-2.756Zm-55.249 28.276a58.858 58.858 0 0 1-8.633-2.01 60.02 60.02 0 0 1-8.469-2.654 60.803 60.803 0 0 1 8.633 2.009 59.34 59.34 0 0 1 8.469 2.655Zm59.041-38.805a4.251 4.251 0 0 1-1.441 0 14.968 14.968 0 0 1-3.855-.923 15.844 15.844 0 0 1-9.151-8.987 16.324 16.324 0 0 1-1.125-7.116c.056-2.001.655-3.95 1.732-5.638a5.845 5.845 0 0 1 3.198-2.363 3.816 3.816 0 0 1 1.074-.139h.379s-.531 0-1.378.341a5.754 5.754 0 0 0-2.894 2.364c-1.719 2.705-2.2 7.647-.367 12.261a15.456 15.456 0 0 0 3.906 5.713 16.598 16.598 0 0 0 4.791 3.084 24.343 24.343 0 0 0 5.131 1.403Zm29.464 1.087a105.4 105.4 0 0 1-.303-11.654 104.23 104.23 0 0 1 .354-11.642c.316 3.872.418 7.759.303 11.642.107 3.888-.012 7.779-.354 11.654Z"/>
  <path fill="#FFBE9D" d="M234.093 269.611c.139-2.819.43-6.004.43-6.004s6.977-.771 7.394-7.976c.417-7.204 0-23.826 0-23.826l-12.64-6.472-14.03 11.035 2.161 36.024 12.868.822a3.72 3.72 0 0 0 3.817-3.603Z"/>
  <path fill="#EB996E" d="M235.344 249.931s0 .139-.113.303a.937.937 0 0 1-.797.354c-.809 0-1.592-.935-1.871-2.022a3.306 3.306 0 0 1 0-1.606 1.388 1.388 0 0 1 .759-1.087c.17-.07.361-.07.531 0a.643.643 0 0 1 .29.291c.089.215 0 .354 0 .341 0-.012 0-.126-.126-.253a.454.454 0 0 0-.594-.126 1.07 1.07 0 0 0-.518.897 3.22 3.22 0 0 0 0 1.429c.253.986.935 1.782 1.542 1.858a.882.882 0 0 0 .67-.19c.151-.101.202-.202.227-.189Z"/>
  <path fill="#263238" d="M246.253 227.912c-.974-3.312-4.5-4.955-7.711-5.865-4.891-1.391-10.175-1.997-14.953-.24-4.778 1.757-10.516 4.841-10.516 10.112-2.819-.228-4.437 2.237-5.549 5.296a19.824 19.824 0 0 0-1.264 5.814c-.354 6.902-2.288 16.432-6.763 21.488-2.528 2.819-6.029 4.766-7.47 8.279-1.264 3.047-.607 6.662-1.782 9.746-1.049 2.717-3.362 4.651-5.056 7.015a18.807 18.807 0 0 0-1.201 18.189 23.043 23.043 0 0 0 13.765 11.882 32.202 32.202 0 0 0 18.138.177 30.333 30.333 0 0 0 12.16-6.03 20.297 20.297 0 0 0 7.053-11.679c.898-5.157-.543-10.403-1.618-15.535-3.362-16.217-2.401-17.064 1.846-32.118.101-.265.151-.543.227-.809.076-.265.114-.392.165-.594.12-.595.184-1.2.189-1.807a3.48 3.48 0 0 1-3.653-.784 3.787 3.787 0 0 1-.859-3.792 5.5 5.5 0 0 1 3.261-3.072c1.403-.581 2.907-.884 4.285-1.529 2.92-1.39 4.942-4.272 6.32-7.293a10.018 10.018 0 0 0 .986-6.851Z"/>
  <path fill="#FD7401" d="M235.85 250.272c.267.395.487.819.657 1.264a91.26 91.26 0 0 1 1.441 3.223l.101.24h-.265l-1.264.114c-.873 0-1.606.164-2.465.152a.469.469 0 0 1-.202-.103.465.465 0 0 1-.127-.188.578.578 0 0 1 0-.354c.029-.17.067-.339.114-.505l.227-.898a8.63 8.63 0 0 1 .531-1.744 8.487 8.487 0 0 1-.265 1.807l-.177.898c-.063.303-.177.771 0 .733.632 0 1.529-.139 2.364-.19l1.264-.114-.165.279c-.543-1.264-.998-2.453-1.264-3.274a4.913 4.913 0 0 1-.505-1.34Z"/>
  <path fill="#263238" d="m192.57 356.663 56.059-1.706 24.395 95.229-4.487 109.235h-29.641l3.628-106.909-21.678-66.297 3.337 177.441-29.957.442-3.147-166.785c-.139-4.639-1.656-15.092-1.087-19.693l2.578-20.957Z"/>
  <path fill="#455A64" d="M228.304 387.568c-.918.057-1.839.002-2.743-.165a88.776 88.776 0 0 1-6.548-1.061 84.345 84.345 0 0 1-6.459-1.555 10.436 10.436 0 0 1-2.528-.91c0-.19 4.121.796 9.177 1.82 5.056 1.024 9.126 1.681 9.101 1.871Zm39.93 165.862c0 .177-6.712.328-14.992.328-8.279 0-15.003-.151-15.003-.328 0-.177 6.712-.329 15.003-.329 8.292 0 14.992.139 14.992.329Zm-44.316 5.612c0 .189-6.523.328-14.562.328s-14.548-.139-14.548-.328c0-.19 6.522-.329 14.548-.329 8.027 0 14.562.152 14.562.329Z"/>
  <path fill="#455A64" d="M220.05 558.587c-.177 0-.961-38.767-1.757-86.584-.797-47.817-1.264-86.609-1.1-86.609.164 0 .973 38.754 1.757 86.596.784 47.843 1.289 86.597 1.1 86.597Zm44.202-5.157a3.212 3.212 0 0 1 0-.519v-1.516c0-1.365.101-3.325.177-5.815.177-5.056.43-12.4.746-21.399.682-18.101 1.643-43.052 2.692-70.595v-.745.088c-6.636-26.544-12.64-50.636-17.001-68.066l-5.056-20.616c-.581-2.414-1.024-4.298-1.34-5.612-.151-.62-.253-1.1-.341-1.467a2.165 2.165 0 0 1-.088-.505c.065.159.116.324.151.493.101.354.228.834.405 1.441.341 1.264.834 3.185 1.466 5.587 1.264 4.879 3.046 11.907 5.271 20.565 4.399 17.418 10.466 41.446 17.19 68.028v.835c-1.125 27.542-2.149 52.481-2.894 70.581-.392 9.013-.721 16.306-.948 21.387-.127 2.528-.228 4.45-.291 5.815 0 .644-.076 1.15-.089 1.516.002.175-.015.348-.05.519Z"/>
  <path fill="#455A64" d="M254.582 450.616a33.887 33.887 0 0 1-6.547 1.454c-2.731.467-5.056.796-6.105.846v-.252c.341.101.518.164.518.215 0 .05-.215 0-.569 0h-.758l.758-.228c.986-.291 3.312-.771 6.042-1.264a34.157 34.157 0 0 1 6.661-.771Zm-.518 3.628a32.64 32.64 0 0 1-5.903-.266 33.256 33.256 0 0 1-5.877-.645 37.41 37.41 0 0 1 11.78.911Z"/>
  <path fill="#000" d="M192.33 358.673a7.694 7.694 0 0 0 5.537 2.945c2.257.267 4.541.225 6.787-.127 14.473-1.605 29.805-3.084 43.975-6.534-18.341 1.023-37.718.682-56.059 1.706l-.189 1.567m18.846 26.291 10.34 40.12-.721-38.426-9.619-1.694Z" opacity=".2"/>
</svg>
